<svg xmlns="http://www.w3.org/2000/svg" viewBox="61 132 1718 1576"><path fill="#6008d7" d="m918 1698-89-56a1835 1835 0 0 1-330-245l-10-9-34-31-29-28c-49-45-111-107-145-144a1022 1022 0 0 1-157-226 389 389 0 0 1-26-64l-6-19a520 520 0 0 1-2-304 534 534 0 0 1 27-76l2-5a1019 1019 0 0 1 46-87 591 591 0 0 1 327-248 425 425 0 0 1 421 114l12 13 3-3 14-12a520 520 0 0 1 116-83 448 448 0 0 1 407 7 579 579 0 0 1 114 79l36 36 16 18c7 8 23 31 36 50l20 34 10 17 16 32 12 27a588 588 0 0 1 47 232c0 40-2 67-9 102-7 34-23 86-34 111l-5 11a762 762 0 0 1-144 219c-32 37-107 115-154 158l-36 34-45 40-44 38-30 26-38 31c-14 12-32 25-68 52a3838 3838 0 0 1-223 151c-19 12-18 12-24 8"/><path fill="#ba010c" d="m921 1543-4-6-5 5-5 4-10-7-18-15-59-46-102-80-5-5v-8q1-8-2-9-1-4-6 3l-5 4a3551 3551 0 0 1-393-391c-15-19-38-53-48-71l-7-11a575 575 0 0 1-34-77l-4-14a463 463 0 0 1 138-470c64-58 144-94 225-101a341 341 0 0 1 269 102c24 24 36 38 56 69 16 24 17 25 18 25s3-2 14-20q28-42 69-82a356 356 0 0 1 246-95 404 404 0 0 1 316 179l8 13 3 5 5 9c9 17 25 52 30 65l6 18a393 393 0 0 1 15 57l2 10c7 38 8 54 8 91a383 383 0 0 1-21 139q-20 63-63 127c-41 60-87 113-181 207a3633 3633 0 0 1-207 191l-28 23-5 4-5-4q-5-7-6-3-2 1-2 9v7l-6 6-15 12-23 19-27 21-18 14-11 9-96 73z"/><path fill="#8a5bff" d="M926 1406c2-258 1-245 9-272 8-26 18-47 36-71a270 270 0 0 1 173-102l12-2a321 321 0 0 0 58-16l7-4a484 484 0 0 0 94-57q35-25 45-29 14-7 30-9 28-3 46 15c10 10 12 14 12 27-1 9-1 10-4 17-4 9-5 10-44 42l-32 27-51 43a1249 1249 0 0 0-74 69q0 2 15-6c23-12 34-20 93-69l46-39c59-49 62-52 67-72q4-12 1-23-4-18-17-29l-6-6 2-10 5-18 3-11 3-9 3-12 32-112c12-38 23-57 39-65 7-4 19-4 26-1q15 7 17 29c1 12 1 15-6 39a309 309 0 0 0-10 50l-3 21-5 27-5 26c-4 26-13 78-16 86-5 21-14 39-42 81-61 94-88 126-132 155a470 470 0 0 1-92 46l-27 11-13 6q-8 3-27 14c-15 8-33 23-44 37s-21 35-26 53c-4 18-5 29-6 71v40l-11 9-27 21-27 22-18 14-11 9-97 73zm-21 133-16-13-28-22-132-103-10-8v-34l-1-47q-4-50-28-83c-20-27-43-43-92-62l-44-18-14-6a303 303 0 0 1-115-87c-30-37-87-123-100-149-4-9-9-24-11-37l-21-120-14-74c-7-23-9-33-7-44q3-19 18-27c6-3 7-3 16-3q9 0 13 2c15 8 24 22 34 55l4 13a1452 1452 0 0 1 30 109l4 15 4 15 4 15c4 14 4 14-3 21-10 9-13 15-17 28q-3 18 4 35c6 11 10 16 47 47l29 24 39 34 31 26a272 272 0 0 0 70 44c2-2 1-3-15-18a1962 1962 0 0 0-115-100l-18-15-36-31c-12-10-16-15-19-28v-13q6-24 32-34c6-2 8-2 19-2 25 0 39 7 85 41 28 21 59 41 75 47l11 5 20 8a658 658 0 0 0 88 20c31 8 69 28 95 49q52 42 73 94c8 18 12 32 15 53v367c0 12-1 13-4 11m230-194 1-9zm102-433 13-31 45-97 15-32c26-59 27-61 38-68q20-12 32 2l2 3-4 27-11 62-7 40-2 10q0 9-4 9c-6 3-24 14-40 26a996 996 0 0 1-77 49m-640-4c-12-7-44-29-70-48q-22-17-33-21-7-3-6-7l-3-14-2-16-8-48-4-23-7-40c0-2 5-9 9-11l8-2q11-3 22 8c8 7 10 11 31 59a3731 3731 0 0 0 73 166q0 3-10-3m-178-78-17-63-14-50-10-36c-7-26-16-52-22-64-4-10-4-10-4-21 0-10 0-12 2-17q9-19 28-19 17-1 30 19c10 14 20 43 26 73l2 8a667 667 0 0 1 13 73l4 19 4 26 5 30c3 17 3 19 2 20l-5-1q-17-3-42 4zm1001 0c-4-2-16-4-21-4l-14 2-9 1 2-12 3-18 10-59 2-12 3-15c3-23 5-30 8-44l2-8 2-9 2-8c4-16 13-40 20-55 5-9 17-21 26-25 6-3 17-3 24 0q9 5 14 15c2 5 3 7 3 17v11l-5 9q-10 18-18 43l-48 171z"/><path fill="#f4eeff" d="m915 1569-31-24-138-108-40-31a3114 3114 0 0 1-370-356 654 654 0 0 1-137-240l-4-16a710 710 0 0 1-9-99 374 374 0 0 1 14-114q24-98 82-176a433 433 0 0 1 235-158 354 354 0 0 1 332 86 451 451 0 0 1 71 87l8-10a403 403 0 0 1 194-154 374 374 0 0 1 337 46 406 406 0 0 1 159 201 528 528 0 0 1 35 233 474 474 0 0 1-106 262l-42 54a3201 3201 0 0 1-481 439l-42 32-63 49zm20-33 66-51 34-26 45-36 26-20 11-9v-40c1-42 2-53 6-71 5-18 15-39 26-53 12-15 30-30 45-38q19-11 27-14l13-6 27-11q72-29 112-61c30-23 59-59 111-139 28-42 37-60 42-81 3-8 12-60 16-86l5-26 5-27 13-71c7-24 7-27 6-39q-3-30-28-30-10-1-19 6-18 12-33 61l-35 124-3 9-3 11-5 18-2 10 6 6a53 53 0 0 1 16 52q-6 21-24 37l-44 36-46 39-70 56c-11 8-45 24-46 23-2-1 42-41 82-75l51-43 32-27c39-32 39-32 43-41 3-7 3-8 4-17 0-13-2-17-11-26a53 53 0 0 0-46-15q-16 1-30 9-10 4-45 29l-54 37c-6 4-33 18-40 20l-7 4a296 296 0 0 1-58 16l-12 2-24 5c-38 9-77 29-109 56q-55 46-75 111c-6 22-7 28-7 87-2 114-2 320-1 320zm-27-54 1-184c0-131 0-133-3-152q-6-30-25-62a260 260 0 0 0-155-118l-33-7a658 658 0 0 1-75-21l-11-5c-16-6-47-26-75-47-46-34-60-41-85-41-11 0-13 0-19 2q-26 9-31 33v13c3 13 7 18 18 27l36 31 18 15 36 31a1813 1813 0 0 1 101 92c-2 2-35-15-53-28l-40-33-30-25-36-30-32-28c-26-22-33-31-37-46q-3-18 4-34 3-9 13-19c7-7 7-6 3-20l-4-15-4-15-4-15-34-122c-6-20-11-31-18-41q-5-8-15-13-4-3-13-2c-9 0-10 0-16 3q-14 7-17 26c-2 11 0 21 7 44a1198 1198 0 0 1 20 110l15 84c2 13 7 28 11 37 13 26 70 112 100 149q43 54 114 86l14 6 27 11 17 7q30 12 48 22 56 33 70 99c3 17 4 34 4 72v34l10 7 131 103 28 22 18 14zm234-108 28-23 73-63c61-57 80-75 131-126 111-110 164-174 207-252a414 414 0 0 0 44-117c8-35 11-59 10-99 0-37-1-53-8-91l-2-10-15-57-6-18a518 518 0 0 0-49-95 394 394 0 0 0-200-150c-39-13-65-18-106-19-43-1-78 5-117 18a363 363 0 0 0-202 171c-10 16-11 16-12 13a386 386 0 0 0-98-124 340 340 0 0 0-243-77q-75 6-145 45a409 409 0 0 0-151 139 478 478 0 0 0-60 380l4 14a568 568 0 0 0 34 77l7 11c20 35 54 81 93 126 53 61 171 180 249 251 38 34 90 78 92 78l1-27c0-38-2-57-10-78-4-13-7-18-14-29q-16-25-48-42a619 619 0 0 0-86-36l-9-4-35-18c-41-23-70-49-103-92-28-39-76-112-86-133-12-24-11-21-37-175-8-49-10-56-15-73-4-12-4-13-4-26 0-17 1-23 7-33q11-18 29-24c9-3 24-3 32 0l7 4q4 3 4-1c0-4 3-13 6-19 11-23 37-34 60-26q16 7 30 27a297 297 0 0 1 32 97l6-3q17-9 38 0c9 4 19 15 24 25l24 53 7 16 5 13 8 18 19 42 14 32c5 13 19 40 23 46q7 10 18 17c7 4 17 7 43 12a287 287 0 0 1 225 171l4 11 6-14c9-22 17-36 31-55a291 291 0 0 1 188-109c27-5 33-6 41-9q14-5 23-15c6-6 8-9 18-29l36-76 6-14 3-7 5-11 6-12 5-12 4-9 5-10 7-16c5-13 14-31 18-37q15-20 37-24h15l10 4 2 1 2-7c6-23 14-49 18-58q15-37 37-51 11-7 28-7c9 1 11 1 17 4q22 10 26 35l3 7 4-2c3-2 13-6 19-6q12-1 24 4c8 3 18 14 22 22q10 23 1 57l-5 19-5 23c-10 65-27 161-30 175-3 12-9 27-14 37-12 24-60 97-88 134-37 49-72 77-132 106l-28 13-5 2-25 11-7 2-20 9q-32 14-52 33c-24 24-35 51-38 90v59zm120-477 52-35c18-13 36-24 40-25q3 0 3-9l2-10 7-40 11-62 4-27-2-3q-9-11-26-4-13 6-22 25l-63 139-31 66c0 1 14-7 25-15m-656 14-3-7-18-39-24-55-50-114q-8-12-20-17c-8-2-19 1-24 8q-3 2-1 6l2 12 3 17 2 15 2 11 3 21 6 33 5 30q-1 3 7 7 10 4 31 20c42 31 79 55 79 52m-175-84a85 85 0 0 1 36 0l-2-19-9-56-2-9-2-10-6-36-7-37-2-8-10-39q-10-31-25-44-8-8-20-8-14 0-22 10-9 11-8 26c1 9 1 10 5 20a473 473 0 0 1 26 78l6 24 33 111zm995 1 4-16 7-25 36-128q8-25 18-43l5-9v-11c0-10-1-12-3-17q-4-10-13-14-5-2-13-2-12-1-25 12a72 72 0 0 0-15 24 297 297 0 0 0-18 53l-2 9-2 8c-3 14-5 21-8 44l-3 15-2 12-2 12-13 76 9-1 13-2c5 0 17 2 21 4q6 2 6-1"/></svg>