<svg xmlns="http://www.w3.org/2000/svg" viewBox="61 132 1718 1576"><path fill="#6008D7" d="M918.4 1697.8C913.0 1694.4 898.7 1685.3 881.5 1674.3C875.5 1670.4 868.7 1666.3 866.5 1665.1C864.3 1664.0 857.3 1659.7 851.0 1655.6C844.7 1651.5 834.9 1645.3 829.3 1641.8C774.7 1608.2 702.8 1561.2 676.3 1541.7C627.9 1506.1 599.7 1484.0 561.5 1451.5C550.7 1442.3 513.2 1409.3 499.5 1397.0C496.1 1394.0 491.6 1389.9 489.4 1388.0C479.0 1378.7 463.6 1364.7 454.9 1356.5C449.7 1351.6 436.4 1339.2 425.5 1329.0C377.4 1284.3 315.2 1221.8 281.4 1184.5C221.4 1118.2 180.6 1063.2 143.3 998.0C138.6 989.7 132.2 977.0 123.5 958.5C116.8 944.2 115.4 941.0 112.0 932.5C110.3 928.1 108.2 923.1 107.5 921.5C105.7 917.5 100.6 903.0 98.1 895.0C97.0 891.4 94.3 882.6 92.1 875.5C84.1 849.8 78.0 820.9 73.9 790.0C68.6 749.5 68.3 698.1 73.0 659.0C74.1 650.5 74.6 647.2 77.5 628.5C79.5 616.3 83.5 597.0 86.1 587.2C87.1 583.3 88.9 576.5 90.1 572.2C94.6 555.1 104.7 524.1 107.0 519.8C107.6 518.8 108.0 517.6 108.0 517.1C108.0 516.6 109.6 512.8 111.5 508.7C113.4 504.6 115.0 500.9 115.0 500.5C115.0 500.1 115.7 498.2 116.6 496.2C117.5 494.1 118.6 491.6 119.0 490.5C119.5 489.4 122.3 483.3 125.3 477.0C128.3 470.7 132.0 462.8 133.5 459.5C136.9 452.0 149.9 428.7 155.8 419.5C158.3 415.6 162.6 408.7 165.3 404.0C173.8 389.6 194.8 360.4 209.4 343.0C247.0 298.0 285.6 262.9 335.5 228.6C351.2 217.8 391.0 195.5 412.5 185.4C436.1 174.4 474.0 160.4 492.0 156.1C578.6 135.2 638.4 135.1 719.2 155.4C755.1 164.5 812.3 190.9 841.5 211.9C845.9 215.1 853.3 220.2 858.0 223.3C862.7 226.3 870.8 232.6 876.0 237.2C881.2 241.8 888.9 248.3 893.0 251.7C897.1 255.0 906.1 263.5 912.9 270.4L925.4 283.0L928.4 280.3C930.1 278.7 936.2 273.0 942.0 267.5C947.8 262.0 956.5 254.1 961.4 250.0C966.2 245.9 972.8 240.3 975.9 237.7C992.2 223.8 1034.1 196.9 1057.5 185.3C1073.3 177.4 1110.8 162.2 1124.5 158.2C1172.5 144.0 1232.4 137.2 1276.0 141.0C1309.1 143.9 1333.2 147.8 1364.0 155.1C1392.6 161.9 1431.4 176.4 1464.0 192.5C1478.3 199.6 1505.5 215.2 1514.5 221.5C1517.8 223.8 1525.0 228.8 1530.5 232.5C1544.7 242.3 1567.9 260.8 1578.5 270.8C1598.8 290.1 1606.7 298.0 1614.6 307.0C1619.3 312.2 1626.4 320.3 1630.6 325.0C1637.6 333.0 1654.2 355.7 1667.0 375.0C1675.2 387.4 1674.8 386.6 1687.3 409.0C1691.2 415.9 1695.4 423.3 1696.6 425.5C1699.2 429.9 1709.5 450.8 1712.9 458.2C1717.2 467.9 1722.5 479.8 1724.5 484.5C1728.6 493.7 1738.3 519.9 1741.0 529.0C1764.9 608.6 1772.0 651.4 1772.0 717.0C1772.0 756.6 1769.5 783.5 1762.5 819.3C1755.8 853.4 1740.1 905.1 1729.0 929.5C1728.0 931.7 1725.8 937.1 1724.0 941.4C1719.6 952.5 1702.3 987.2 1694.4 1001.0C1680.7 1024.6 1671.0 1040.7 1666.3 1047.5C1633.9 1094.1 1616.9 1116.2 1579.5 1160.0C1547.8 1197.2 1472.6 1274.5 1425.6 1318.3C1410.7 1332.2 1394.7 1347.1 1390.0 1351.6C1385.3 1356.0 1376.1 1364.3 1369.5 1370.0C1362.9 1375.8 1352.1 1385.4 1345.4 1391.5C1327.6 1407.7 1320.5 1413.9 1301.0 1430.3C1291.4 1438.5 1277.9 1449.9 1271.1 1455.8C1264.3 1461.7 1254.6 1469.6 1249.6 1473.4C1244.6 1477.2 1236.9 1483.3 1232.5 1487.0C1218.7 1498.5 1201.0 1512.2 1165.2 1538.8C1120.0 1572.4 1046.6 1622.3 967.5 1673.0C960.4 1677.6 948.9 1685.1 942.0 1689.6C923.2 1701.8 924.3 1701.5 918.4 1697.8Z"/><path fill="#BA010C" d="M921.4 1542.5L916.6 1537.0L911.9 1541.6L907.3 1546.2L897.4 1538.5C891.9 1534.3 883.7 1527.9 879.0 1524.2C853.1 1504.0 832.0 1487.5 820.0 1478.2C812.6 1472.4 799.5 1462.1 791.0 1455.4C766.8 1436.2 740.3 1415.4 731.5 1408.7C727.1 1405.3 721.1 1400.4 718.2 1397.6L713.0 1392.7L713.0 1385.0C713.0 1378.9 712.6 1377.0 711.2 1375.7C709.5 1374.1 709.1 1374.3 705.0 1378.5C702.6 1381.0 700.2 1383.0 699.7 1383.0C697.5 1383.0 637.7 1331.6 602.5 1299.6C564.1 1264.5 539.2 1240.3 472.0 1173.1C386.2 1087.1 347.5 1044.7 306.9 992.0C292.2 972.9 268.8 938.5 259.0 921.4C256.5 917.1 253.4 911.8 252.1 909.5C249.6 905.4 241.7 889.6 236.2 878.0C231.5 868.0 221.1 841.5 218.3 832.5C217.0 828.1 215.0 821.8 214.0 818.5C213.0 815.2 210.8 806.6 209.1 799.5C201.5 767.7 199.6 753.8 197.9 719.3C196.0 681.4 198.9 640.7 205.9 607.5C209.3 591.6 210.4 586.6 212.1 580.0C221.4 544.4 236.9 504.5 253.1 474.2C278.6 426.7 310.2 386.5 351.6 349.1C415.5 291.3 496.2 255.1 577.0 248.0C599.1 246.1 638.5 247.3 657.9 250.6C700.1 257.6 744.7 274.3 778.5 295.6C805.2 312.5 821.1 325.2 846.3 350.0C870.3 373.5 881.7 387.5 902.1 418.5C918.4 443.3 918.8 444.0 920.0 444.0C921.1 444.0 922.7 441.8 934.1 424.2C952.6 395.5 975.2 368.7 1003.0 342.4C1039.6 307.8 1084.8 280.6 1132.0 264.7C1171.1 251.5 1205.8 246.4 1249.0 247.4C1290.3 248.3 1315.8 252.7 1355.1 265.5C1391.6 277.4 1430.6 296.9 1460.5 318.4C1498.6 345.7 1541.8 390.4 1564.5 426.0C1567.1 430.1 1570.8 435.8 1572.6 438.7C1574.5 441.5 1576.0 444.1 1576.0 444.3C1576.0 444.6 1578.2 448.6 1580.8 453.2C1590.4 469.9 1606.4 504.5 1610.9 518.0C1611.5 519.9 1614.1 527.8 1616.6 535.5C1619.2 543.2 1621.6 550.9 1622.0 552.5C1626.3 568.4 1631.3 588.5 1632.1 592.8C1632.6 595.6 1633.4 600.4 1633.9 603.3C1640.8 641.3 1642.2 656.8 1642.3 694.0C1642.5 733.8 1639.9 758.0 1631.9 793.0C1627.8 810.8 1625.3 819.7 1620.8 833.3C1606.6 876.4 1586.9 915.8 1557.7 959.5C1517.4 1020.0 1471.3 1072.7 1376.8 1166.5C1322.9 1220.1 1305.9 1236.3 1242.5 1294.6C1223.2 1312.3 1195.8 1336.1 1169.5 1357.9C1157.4 1368.0 1145.1 1378.3 1142.2 1380.7L1136.8 1385.3L1132.1 1380.6C1127.5 1376.1 1127.3 1376.0 1125.7 1377.8C1124.4 1379.2 1124.0 1381.5 1124.0 1386.7L1124.0 1393.8L1117.7 1399.6C1114.3 1402.9 1107.7 1408.4 1103.1 1412.0C1098.6 1415.6 1088.0 1423.9 1079.6 1430.5C1071.3 1437.1 1059.3 1446.6 1053.0 1451.6C1046.7 1456.5 1038.3 1463.0 1034.5 1465.9C1030.7 1468.9 1025.7 1472.7 1023.5 1474.5C1015.2 1481.1 979.3 1508.9 961.5 1522.5C955.0 1527.5 945.0 1535.2 939.3 1539.8C933.6 1544.3 928.3 1548.0 927.5 1548.0C926.8 1548.0 924.0 1545.5 921.4 1542.5Z"/><path fill="#8A5BFF" d="M926.4 1406.2C927.7 1148.2 927.3 1160.6 935.2 1133.5C942.8 1107.5 953.4 1086.6 970.9 1063.1C1005.3 1016.8 1063.7 978.8 1120.0 966.1C1125.2 964.9 1131.3 963.5 1133.5 963.0C1135.7 962.5 1140.3 961.7 1143.8 961.1C1147.2 960.5 1152.8 959.5 1156.2 958.9C1163.7 957.7 1179.3 954.2 1183.5 952.9C1197.3 948.7 1207.1 945.3 1213.5 942.5C1215.2 941.8 1218.5 940.4 1221.0 939.4C1227.7 936.8 1254.7 922.9 1260.9 919.0C1274.5 910.2 1298.1 894.3 1315.0 882.4C1338.3 866.0 1354.2 855.4 1360.0 852.5C1368.3 848.4 1379.8 845.0 1389.7 843.9C1408.4 841.7 1424.1 846.8 1436.0 858.9C1445.6 868.6 1447.5 873.1 1447.5 885.5C1447.4 894.8 1447.2 896.0 1443.9 903.0C1439.8 911.7 1438.6 912.9 1400.1 945.1C1386.7 956.3 1372.2 968.4 1368.0 972.0C1350.6 986.7 1335.5 999.5 1317.4 1014.6C1287.6 1039.6 1271.1 1054.2 1251.3 1073.1C1243.1 1081.0 1241.4 1083.1 1242.5 1084.0C1243.6 1084.9 1246.9 1083.6 1257.7 1078.1C1281.4 1066.1 1291.8 1058.4 1350.6 1009.0C1365.3 996.6 1386.2 979.2 1396.9 970.2C1456.4 920.7 1459.1 917.8 1464.0 898.2C1466.3 889.2 1466.5 882.6 1464.6 875.0C1461.5 862.3 1456.9 854.4 1447.8 846.0L1441.7 840.4L1444.4 830.0C1445.8 824.2 1448.0 816.1 1449.1 812.0C1450.3 807.9 1451.6 802.9 1452.0 801.0C1452.4 799.1 1453.6 794.8 1454.5 791.5C1455.4 788.2 1456.8 783.0 1457.6 780.0C1462.9 759.8 1483.6 687.8 1489.8 668.0C1501.7 629.9 1513.1 610.9 1528.6 603.0C1535.8 599.4 1547.8 598.9 1554.5 602.1C1564.8 606.9 1570.5 616.4 1572.0 631.0C1573.3 642.5 1572.7 646.1 1565.9 670.0C1563.8 677.4 1561.2 689.1 1560.0 696.0C1558.9 702.9 1557.1 713.7 1556.0 720.0C1554.9 726.3 1553.3 735.8 1552.5 741.0C1551.6 746.2 1549.5 758.1 1547.9 767.5C1546.3 776.9 1544.2 788.8 1543.4 794.0C1539.1 820.2 1529.6 871.7 1527.4 880.4C1522.3 901.0 1513.0 918.7 1485.4 960.8C1423.5 1055.1 1396.5 1086.6 1352.5 1115.7C1329.8 1130.7 1309.6 1141.3 1273.5 1157.0C1271.3 1158.0 1265.5 1160.4 1260.5 1162.4C1249.2 1167.1 1244.6 1169.0 1234.0 1173.4C1229.3 1175.3 1223.5 1177.7 1221.0 1178.6C1216.4 1180.4 1205.8 1185.8 1193.5 1192.5C1178.9 1200.5 1161.3 1215.7 1150.4 1229.6C1139.0 1244.2 1129.0 1264.6 1124.4 1282.7C1119.8 1300.8 1118.9 1311.9 1118.3 1354.3L1117.7 1394.1L1107.0 1402.8C1101.1 1407.6 1089.1 1417.1 1080.4 1424.0C1071.6 1430.8 1059.3 1440.5 1053.0 1445.5C1046.7 1450.5 1038.3 1457.0 1034.5 1460.0C1030.7 1462.9 1025.7 1466.7 1023.5 1468.5C1015.2 1475.1 979.3 1502.9 961.5 1516.5C955.0 1521.5 945.0 1529.2 939.3 1533.8C933.6 1538.3 928.2 1542.0 927.3 1542.0C925.8 1542.0 925.7 1531.4 926.4 1406.2ZM904.9 1538.5C904.1 1537.7 896.9 1531.9 888.8 1525.8C880.8 1519.6 868.4 1510.0 861.4 1504.4C854.3 1498.9 838.1 1486.3 825.5 1476.4C812.9 1466.6 796.4 1453.7 789.0 1447.8C770.2 1433.0 741.4 1410.4 729.2 1400.9L719.0 1392.9L719.0 1359.2C719.0 1340.6 718.5 1319.3 717.9 1311.9C715.2 1278.2 706.3 1251.8 689.5 1228.5C670.3 1201.8 647.4 1186.4 598.0 1167.1C590.6 1164.2 583.0 1161.1 581.2 1160.3C579.3 1159.5 574.4 1157.6 570.2 1156.0C566.0 1154.5 558.5 1151.3 553.5 1149.0C548.5 1146.7 542.5 1143.9 540.0 1142.8C512.5 1130.4 481.8 1111.4 462.5 1094.7C449.1 1083.2 435.0 1068.7 424.9 1056.0C395.1 1018.7 337.5 932.6 325.2 906.9C321.0 898.2 316.3 883.0 313.6 870.0C311.6 859.7 301.3 800.4 299.0 785.5C298.4 782.2 297.5 776.8 297.0 773.5C295.8 766.7 294.4 758.7 293.1 750.2C288.9 723.9 281.0 682.4 279.0 675.9C271.5 652.9 270.0 643.1 272.0 632.0C274.4 618.8 280.0 610.4 290.2 604.9C296.1 601.7 297.1 601.5 305.5 601.5C313.0 601.5 315.2 601.9 319.0 603.9C334.4 612.0 343.2 626.3 353.0 659.0C354.7 664.8 356.5 670.6 357.0 672.0C358.3 675.5 367.7 708.7 370.5 719.5C371.8 724.5 373.8 731.9 375.0 736.0C376.2 740.1 377.4 744.6 377.7 746.0C378.0 747.4 379.0 751.4 380.1 755.0C382.0 761.9 383.9 768.9 387.1 780.8C388.1 784.7 389.9 791.4 391.0 795.5C392.1 799.6 393.9 806.4 395.0 810.5C396.1 814.6 398.0 821.5 399.1 825.8C403.0 840.1 403.0 839.9 396.0 846.6C386.4 855.7 382.5 862.4 379.4 875.0C376.7 885.9 378.3 900.0 383.3 910.2C388.7 921.2 393.4 925.8 430.0 956.5C435.9 961.5 448.8 972.5 458.7 981.0C468.6 989.5 486.5 1004.8 498.4 1015.0C510.4 1025.2 524.1 1036.9 528.9 1041.0C547.6 1057.3 566.8 1070.5 585.5 1079.8C594.0 1084.0 597.9 1085.5 598.7 1084.8C600.5 1083.4 599.6 1082.4 583.5 1067.1C566.4 1050.8 539.5 1027.2 505.0 998.0C497.9 992.0 491.5 986.5 469.1 967.0C464.3 962.9 456.2 955.9 451.0 951.5C445.8 947.1 437.9 940.4 433.4 936.5C429.0 932.7 420.6 925.5 414.7 920.7C402.6 910.8 399.2 905.6 396.3 892.9C395.0 887.0 395.0 884.9 396.0 879.7C399.0 864.2 410.7 851.7 427.7 845.8C433.5 843.8 436.4 843.5 447.0 843.6C472.0 843.8 485.8 850.5 531.6 884.5C560.0 905.7 591.2 925.5 607.0 932.4C610.6 934.0 615.3 936.1 617.6 937.1C624.1 940.0 632.1 943.1 638.0 945.0C647.8 948.2 677.5 955.2 693.0 958.1C710.0 961.2 712.7 961.8 726.1 965.3C756.7 973.4 794.6 992.9 820.6 1014.1C856.4 1043.2 878.6 1071.5 894.4 1108.0C902.0 1125.5 906.1 1140.3 909.1 1161.0C910.0 1167.3 909.7 1344.8 908.6 1527.9C908.5 1539.5 907.8 1541.4 904.9 1538.5ZM1135.4 1344.5C1135.4 1334.6 1135.6 1330.7 1135.7 1335.8C1135.9 1340.9 1135.9 1349.0 1135.7 1353.8C1135.6 1358.6 1135.4 1354.4 1135.4 1344.5ZM1236.6 912.2C1236.3 911.7 1242.4 897.8 1250.1 881.4C1257.8 864.9 1265.2 849.0 1266.5 846.0C1267.8 843.0 1272.0 833.8 1275.9 825.7C1279.8 817.6 1283.0 810.7 1283.0 810.4C1283.0 810.2 1285.7 804.3 1289.0 797.3C1292.3 790.4 1295.0 784.6 1295.0 784.3C1295.0 784.1 1301.6 769.5 1309.6 751.7C1336.2 693.1 1337.1 691.4 1347.9 684.2C1360.4 675.9 1373.2 676.7 1380.3 686.1L1382.2 688.8L1377.5 715.6C1374.9 730.4 1370.1 758.2 1366.9 777.5C1363.6 796.8 1360.5 815.0 1359.9 818.0C1359.3 821.0 1358.7 825.3 1358.4 827.5C1357.4 834.9 1357.0 836.1 1354.2 837.3C1348.1 839.9 1330.4 851.0 1313.5 862.8C1269.1 893.7 1254.6 903.4 1243.8 909.4C1240.2 911.4 1236.9 912.7 1236.6 912.2ZM597.0 908.1C585.1 901.3 553.0 879.4 526.5 859.8C511.7 848.9 500.8 841.8 494.1 838.6C488.5 835.9 488.1 835.4 487.5 831.6C487.2 829.3 486.2 823.2 485.4 818.0C484.6 812.8 483.5 805.4 482.9 801.5C482.3 797.6 481.0 790.2 480.0 785.0C478.9 779.8 477.6 771.9 477.0 767.5C476.4 763.1 475.5 756.9 475.0 753.8C472.9 741.6 471.9 735.3 471.0 730.5C470.1 725.2 468.6 715.9 467.0 705.8C465.2 693.8 464.9 691.9 464.4 690.5C463.7 688.9 469.4 682.4 473.1 680.4C474.6 679.7 478.2 678.5 480.9 677.9C488.7 676.3 495.4 678.6 502.9 685.6C511.2 693.2 513.0 696.8 533.5 745.0C542.6 766.3 553.9 792.1 562.0 810.0C564.9 816.3 568.9 825.5 571.0 830.5C575.0 840.1 580.8 853.2 586.0 864.5C587.8 868.4 591.9 877.5 595.1 884.8C598.3 892.1 602.3 900.7 604.0 904.0C605.6 907.3 607.0 910.4 607.0 911.0C607.0 912.8 603.6 911.9 597.0 908.1ZM418.6 829.9C418.1 828.4 416.2 821.5 401.6 767.0C396.3 747.5 390.2 725.0 388.0 717.0C385.7 709.0 383.0 699.1 381.9 695.0C380.8 690.9 379.7 687.3 379.5 686.9C379.2 686.6 378.4 683.8 377.6 680.9C370.6 654.8 362.1 629.2 356.2 616.5C351.5 606.5 351.5 606.5 351.5 595.5C351.5 585.7 351.8 583.9 354.1 579.0C360.3 566.0 369.3 559.7 382.0 559.7C394.2 559.7 402.6 565.1 411.9 578.9C421.5 593.0 431.8 621.7 438.1 651.5C438.7 654.2 439.6 658.1 440.0 660.0C442.4 670.7 444.4 681.6 447.0 697.2C447.6 700.7 448.5 705.8 449.0 708.5C449.5 711.2 450.4 716.6 451.0 720.5C451.6 724.4 452.5 730.0 453.1 733.0C455.1 743.8 456.0 748.5 456.5 752.0C457.2 756.9 458.5 764.7 461.0 778.0C463.2 789.8 464.0 795.1 466.0 808.0C468.6 824.9 468.9 827.4 468.4 827.9C468.2 828.1 465.7 827.8 462.9 827.2C452.0 824.6 437.8 825.8 421.3 830.6C419.8 831.0 418.9 830.8 418.6 829.9ZM1420.1 829.9C1415.9 828.2 1403.6 826.0 1398.6 826.0C1395.9 826.0 1389.9 826.7 1385.2 827.6C1380.6 828.4 1376.6 828.9 1376.2 828.6C1375.9 828.2 1376.6 822.9 1377.8 816.7C1378.9 810.6 1380.4 802.4 1381.0 798.5C1382.9 786.4 1386.0 768.0 1389.0 751.5C1389.5 748.8 1390.4 743.4 1391.0 739.5C1391.6 735.6 1392.6 730.2 1393.1 727.5C1393.6 724.8 1394.7 718.2 1395.6 713.0C1399.3 690.1 1400.8 682.6 1404.2 668.5C1404.7 666.3 1405.5 662.7 1406.0 660.5C1406.5 658.3 1407.4 654.6 1407.9 652.2C1408.5 649.9 1409.4 646.3 1409.9 644.2C1413.9 627.9 1422.7 604.0 1430.3 589.2C1435.2 579.7 1446.6 568.2 1456.0 563.5C1461.6 560.6 1473.4 560.9 1479.5 564.0C1486.1 567.4 1490.7 572.2 1493.9 578.9C1496.2 583.9 1496.5 585.7 1496.5 595.6L1496.5 606.7L1491.8 615.7C1485.2 628.3 1479.6 642.2 1474.4 659.0C1466.4 684.3 1445.5 757.7 1437.0 790.0C1434.9 798.2 1429.3 819.2 1426.4 829.8C1426.0 831.2 1423.5 831.3 1420.1 829.9Z"/><path fill="#F4EEFF" d="M915.0 1569.0C913.1 1567.5 899.1 1556.5 884.0 1544.8C820.9 1495.7 771.9 1457.4 746.1 1437.1C731.1 1425.2 713.0 1411.0 706.1 1405.5C635.0 1349.5 572.8 1293.3 481.1 1202.5C418.3 1140.3 367.2 1086.4 336.1 1049.5C272.3 974.0 236.0 916.5 212.2 853.0C208.3 842.6 202.1 822.5 199.0 810.0C197.3 803.1 195.5 795.9 195.0 794.0C193.3 787.3 188.2 753.4 186.9 740.0C186.0 731.5 185.5 714.8 185.6 695.0C185.7 665.7 186.5 652.9 189.6 632.0C193.4 606.1 194.0 603.1 199.5 581.0C216.0 514.7 242.7 457.7 281.6 405.4C327.8 343.2 393.3 292.4 463.5 264.2C478.0 258.4 504.2 249.7 516.5 246.6C579.9 230.7 645.3 231.7 704.0 249.4C759.4 266.1 802.6 291.1 848.9 333.0C869.2 351.3 898.8 387.3 915.0 413.2C917.3 417.0 919.6 420.0 920.1 420.0C920.5 420.0 923.9 415.5 927.5 410.1C956.2 366.4 997.0 324.7 1035.5 299.5C1066.8 278.9 1092.6 265.8 1122.1 255.5C1148.9 246.2 1172.8 240.9 1206.5 236.9C1224.7 234.7 1265.1 235.2 1285.5 237.9C1348.1 246.0 1406.2 267.4 1458.9 301.7C1510.5 335.3 1555.3 382.8 1587.2 438.0C1600.1 460.2 1606.6 473.8 1618.1 502.8C1636.7 549.3 1648.3 599.1 1653.1 652.5C1654.6 669.2 1654.6 719.9 1653.1 735.5C1645.5 814.8 1622.8 880.5 1578.4 951.8C1570.0 965.2 1566.6 970.3 1547.2 997.5C1537.3 1011.4 1520.3 1032.8 1504.6 1051.5C1458.3 1106.4 1354.0 1211.3 1267.5 1290.1C1236.6 1318.2 1228.3 1325.6 1222.5 1330.5C1219.2 1333.2 1211.1 1340.2 1204.5 1346.0C1186.1 1362.2 1116.5 1418.6 1074.5 1451.5C1049.8 1470.8 1035.4 1482.0 1024.0 1490.8C1017.1 1496.1 998.4 1510.6 982.4 1523.0C966.5 1535.4 947.2 1550.2 939.5 1556.0C931.9 1561.8 924.2 1567.7 922.5 1569.2C920.7 1570.8 919.1 1572.0 918.9 1571.9C918.7 1571.9 916.9 1570.6 915.0 1569.0ZM935.4 1535.6C954.2 1521.3 985.5 1497.1 1000.5 1485.3C1009.8 1478.0 1016.6 1472.8 1034.5 1459.0C1038.4 1456.0 1046.8 1449.5 1053.1 1444.5C1059.3 1439.5 1071.4 1430.0 1080.0 1423.3C1088.5 1416.5 1100.3 1407.2 1106.1 1402.5L1116.7 1394.1L1117.3 1354.3C1117.9 1311.9 1118.8 1300.8 1123.4 1282.7C1128.0 1264.6 1138.0 1244.2 1149.4 1229.6C1160.6 1215.3 1178.8 1199.6 1193.5 1191.5C1205.8 1184.8 1216.4 1179.4 1221.0 1177.6C1223.5 1176.7 1229.3 1174.3 1234.0 1172.4C1244.6 1168.0 1249.2 1166.1 1260.5 1161.4C1310.0 1141.1 1344.8 1122.1 1372.8 1100.3C1403.3 1076.5 1432.0 1040.6 1484.4 960.8C1512.0 918.7 1521.3 901.0 1526.4 880.4C1528.6 871.7 1538.1 820.2 1542.4 794.0C1543.2 788.8 1545.3 776.9 1546.9 767.5C1548.5 758.1 1550.6 746.2 1551.5 741.0C1552.3 735.8 1553.9 726.3 1555.0 720.0C1556.1 713.7 1557.9 702.9 1559.0 696.0C1560.2 689.1 1562.8 677.4 1564.9 670.0C1571.7 646.1 1572.3 642.5 1571.0 631.0C1569.0 611.4 1559.3 601.0 1543.4 601.0C1535.0 601.0 1530.8 602.2 1524.0 606.8C1511.9 614.9 1501.3 634.5 1490.8 668.0C1484.6 687.8 1463.9 759.8 1458.6 780.0C1457.8 783.0 1456.4 788.2 1455.5 791.5C1454.6 794.8 1453.4 799.1 1453.0 801.0C1452.6 802.9 1451.3 807.9 1450.1 812.0C1449.0 816.1 1446.9 824.2 1445.4 829.9L1442.8 840.3L1448.8 845.9C1457.9 854.4 1462.5 862.3 1465.6 875.0C1467.5 882.6 1467.3 889.2 1465.0 898.2C1461.4 912.4 1453.4 924.4 1440.5 934.7C1437.1 937.3 1430.4 943.0 1425.5 947.2C1420.5 951.5 1407.7 962.3 1396.9 971.2C1386.2 980.2 1365.3 997.6 1350.6 1010.0C1312.1 1042.3 1290.8 1059.3 1280.5 1066.2C1269.5 1073.5 1236.0 1090.4 1234.8 1089.2C1233.2 1087.6 1276.8 1047.7 1317.4 1013.6C1335.5 998.5 1350.6 985.7 1368.0 971.0C1372.2 967.4 1386.7 955.3 1400.1 944.1C1438.6 911.8 1438.8 911.6 1442.9 903.0C1446.2 896.0 1446.4 894.9 1446.5 885.5C1446.5 873.2 1444.6 868.6 1435.5 859.5C1424.1 847.9 1408.1 842.7 1389.7 844.9C1379.8 846.0 1368.3 849.4 1360.0 853.5C1354.2 856.4 1338.3 867.0 1315.0 883.4C1298.1 895.3 1274.5 911.2 1260.9 920.0C1254.7 923.9 1227.7 937.8 1221.0 940.4C1218.5 941.4 1215.2 942.8 1213.5 943.5C1207.1 946.3 1197.3 949.7 1183.5 953.9C1179.3 955.2 1163.7 958.7 1156.2 959.9C1152.8 960.5 1147.2 961.5 1143.8 962.1C1140.3 962.7 1135.7 963.5 1133.5 964.0C1131.3 964.5 1125.2 965.9 1120.0 967.1C1082.3 975.6 1043.1 995.5 1010.5 1022.7C973.9 1053.2 948.6 1090.9 936.2 1133.5C929.6 1156.0 929.1 1161.5 928.5 1220.5C927.4 1335.3 926.7 1541.0 927.5 1541.0C928.0 1541.0 931.5 1538.6 935.4 1535.6ZM907.9 1482.2C907.9 1451.0 908.3 1368.1 908.6 1298.0C909.3 1166.7 909.3 1164.7 905.5 1145.5C901.7 1126.5 892.8 1103.9 881.4 1084.1C858.4 1044.1 819.4 1008.2 774.7 985.7C766.9 981.7 758.6 977.8 756.5 976.9C745.8 972.4 734.8 968.6 726.1 966.3C712.7 962.8 710.0 962.2 693.0 959.1C677.5 956.2 647.8 949.2 638.0 946.0C632.1 944.1 624.1 941.0 617.6 938.1C615.3 937.1 610.6 935.0 607.0 933.4C591.2 926.5 560.0 906.7 531.6 885.5C485.8 851.5 472.0 844.8 447.0 844.6C436.4 844.5 433.5 844.8 427.7 846.8C411.0 852.6 400.0 864.4 397.0 879.7C396.0 884.9 396.0 887.0 397.3 892.9C400.2 905.5 403.6 910.7 415.1 920.1C420.8 924.7 429.0 931.7 433.4 935.5C437.9 939.4 445.8 946.1 451.0 950.5C456.2 954.9 464.3 961.9 469.1 966.0C491.5 985.5 497.9 991.0 505.0 997.0C542.6 1028.8 562.6 1046.4 585.8 1068.3C598.6 1080.4 606.7 1088.7 606.1 1089.3C604.0 1091.4 571.3 1074.1 553.2 1061.3C544.5 1055.1 541.0 1052.3 512.5 1028.0C504.4 1021.1 491.1 1009.9 483.0 1003.0C474.9 996.1 458.8 982.4 447.3 972.5C435.8 962.6 421.2 950.2 415.0 945.0C388.5 922.9 381.8 914.3 378.4 898.5C376.0 887.4 377.0 876.4 381.5 865.0C384.1 858.6 388.0 853.2 395.1 846.2C402.0 839.3 401.9 839.9 398.1 825.8C396.9 821.5 395.1 814.6 394.0 810.5C392.9 806.4 391.1 799.6 390.0 795.5C388.9 791.4 387.1 784.7 386.1 780.8C382.9 768.9 381.0 761.9 379.1 755.0C378.0 751.4 377.0 747.4 376.7 746.0C376.4 744.6 375.2 740.1 374.0 736.0C372.8 731.9 370.8 724.5 369.5 719.5C366.7 708.7 357.3 675.5 356.0 672.0C355.5 670.6 353.7 664.8 352.0 659.0C345.9 638.7 341.4 628.4 334.4 618.4C329.9 611.9 326.2 608.7 319.0 604.9C315.2 602.9 313.1 602.5 305.5 602.5C297.1 602.5 296.0 602.7 290.2 605.9C280.5 611.2 275.3 619.0 273.0 632.0C271.0 643.1 272.5 652.9 280.0 675.9C282.0 682.4 289.9 723.9 294.1 750.2C295.4 758.7 296.8 766.7 298.0 773.5C298.5 776.8 299.4 782.2 300.0 785.5C302.3 800.4 312.6 859.7 314.6 870.0C317.3 883.0 322.0 898.2 326.2 906.9C338.5 932.6 396.1 1018.8 425.9 1056.0C454.2 1091.5 493.2 1120.7 540.0 1141.8C542.5 1142.9 548.5 1145.7 553.5 1148.0C558.5 1150.3 566.0 1153.5 570.2 1155.0C574.4 1156.6 579.3 1158.5 581.2 1159.3C583.0 1160.1 590.6 1163.2 598.0 1166.1C618.7 1174.1 633.0 1180.8 645.5 1188.0C682.6 1209.4 706.7 1243.5 715.5 1286.8C718.9 1303.7 720.0 1321.0 720.0 1359.1L720.0 1392.8L729.8 1400.3C740.1 1408.3 766.6 1429.1 789.0 1446.8C796.4 1452.7 812.9 1465.6 825.5 1475.4C838.1 1485.3 854.3 1497.9 861.4 1503.4C868.4 1509.0 880.8 1518.6 888.8 1524.8C896.9 1530.9 904.1 1536.7 904.9 1537.5C905.8 1538.3 906.8 1539.0 907.2 1539.0C907.5 1539.0 907.9 1513.5 907.9 1482.2ZM1142.3 1373.6C1145.2 1371.2 1157.4 1361.0 1169.5 1350.9C1195.8 1329.1 1223.2 1305.3 1242.5 1287.6C1303.8 1231.2 1323.1 1212.9 1374.4 1162.0C1485.1 1052.2 1537.8 987.8 1581.0 909.5C1588.9 895.3 1596.3 879.4 1603.8 860.5C1613.6 835.9 1618.8 819.3 1624.9 793.0C1632.9 758.0 1635.5 733.8 1635.3 694.0C1635.2 656.8 1633.8 641.3 1626.9 603.2C1626.4 600.4 1625.6 595.6 1625.1 592.8C1624.3 588.5 1619.3 568.4 1615.0 552.5C1614.6 550.9 1612.2 543.2 1609.6 535.5C1607.1 527.8 1604.5 519.9 1603.9 518.0C1599.4 504.5 1583.4 469.9 1573.8 453.2C1571.2 448.6 1569.0 444.6 1569.0 444.3C1569.0 443.8 1565.3 438.0 1555.4 423.0C1532.0 387.6 1496.9 351.5 1460.5 325.4C1430.6 303.9 1391.6 284.4 1355.1 272.5C1315.8 259.7 1290.3 255.3 1249.0 254.4C1205.8 253.4 1171.1 258.5 1132.0 271.7C1062.3 295.2 1004.0 338.7 955.3 403.5C947.4 414.0 939.2 426.5 929.5 442.5C919.8 458.7 919.4 459.1 918.1 455.9C915.6 449.4 888.6 407.6 876.5 391.5C861.3 371.4 840.5 349.7 819.7 332.2C773.5 293.5 717.2 267.5 657.9 257.6C638.5 254.3 599.1 253.1 577.0 255.0C527.4 259.4 479.1 274.2 431.9 299.5C385.1 324.5 345.4 357.2 309.4 400.1C301.9 409.1 291.0 424.0 281.3 438.5C257.3 474.6 237.2 518.4 223.2 565.5C219.2 578.8 217.4 586.0 212.9 607.5C201.9 660.0 201.5 732.3 212.0 782.0C214.2 792.4 219.3 812.9 221.0 818.5C222.0 821.8 224.0 828.1 225.3 832.5C228.1 841.5 238.5 868.0 243.2 878.0C248.7 889.6 256.6 905.4 259.1 909.5C260.4 911.8 263.5 917.1 266.0 921.4C286.0 956.1 320.1 1002.1 359.1 1047.0C411.9 1107.8 530.4 1227.1 608.0 1297.6C645.7 1331.8 697.8 1376.0 700.4 1376.0C700.7 1376.0 701.0 1363.7 701.0 1348.7C701.0 1310.8 698.6 1291.6 691.4 1270.8C686.9 1258.0 684.3 1252.8 676.6 1241.5C665.5 1225.1 650.2 1211.8 629.0 1200.2C621.0 1195.8 607.9 1190.2 572.5 1176.0C560.4 1171.2 547.0 1165.6 542.7 1163.6C538.5 1161.6 534.7 1160.0 534.4 1160.0C533.5 1160.0 509.1 1147.7 499.0 1142.0C458.2 1119.3 428.9 1092.9 396.4 1049.5C367.9 1011.4 319.7 937.7 309.6 916.5C298.4 893.2 298.9 895.8 272.9 742.0C264.6 692.9 263.3 686.4 257.8 669.4C253.8 656.9 253.7 656.0 253.6 642.5C253.5 626.3 254.8 620.4 261.0 610.0C268.0 598.1 277.6 590.0 289.9 585.8C299.3 582.6 314.1 582.7 322.0 586.0C325.0 587.3 328.2 588.9 329.1 589.7C331.3 591.6 333.0 591.3 333.0 589.0C333.0 585.4 336.0 575.5 339.0 569.5C349.9 547.2 376.0 536.2 398.7 544.4C408.9 548.0 420.8 558.6 428.7 570.8C439.9 588.4 451.6 623.2 459.0 661.0C459.7 664.6 460.4 667.6 460.5 667.8C460.6 667.9 463.6 666.5 467.2 664.6C478.4 658.8 491.7 658.9 504.6 664.9C513.5 669.1 524.3 680.0 529.2 690.0C532.9 697.5 549.0 733.6 549.0 734.5C549.0 734.8 550.6 738.5 552.6 742.7C554.5 747.0 557.6 754.0 559.5 758.5C561.3 762.9 563.9 769.0 565.3 772.0C566.6 775.0 570.1 782.9 573.0 789.5C579.2 803.6 578.1 801.2 591.6 831.5C597.4 844.7 603.8 859.1 605.7 863.5C611.4 876.9 625.1 904.2 629.1 910.1C633.3 916.3 640.3 922.9 646.8 926.7C653.9 930.9 664.3 933.8 690.0 939.0C723.2 945.7 739.6 950.0 756.4 956.7C797.1 972.7 830.5 995.1 861.0 1026.7C885.8 1052.2 903.6 1079.6 915.0 1109.8L919.3 1121.0L925.0 1107.3C934.2 1084.8 942.0 1071.2 956.4 1052.0C973.2 1029.6 1004.5 1001.2 1029.0 986.0C1066.5 962.7 1095.1 952.0 1144.5 943.0C1171.3 938.1 1176.9 936.8 1185.3 933.6C1195.2 929.9 1200.8 926.3 1208.2 918.7C1214.4 912.5 1215.8 910.2 1225.9 889.7C1235.1 871.0 1250.1 838.8 1261.5 813.5C1263.0 810.2 1265.7 804.2 1267.6 800.2C1269.5 796.1 1271.0 792.7 1271.0 792.5C1271.0 792.3 1273.1 787.8 1275.6 782.3C1278.1 776.9 1280.8 771.1 1281.5 769.5C1282.3 767.9 1284.7 762.5 1286.9 757.7C1289.2 752.8 1291.0 748.7 1291.0 748.5C1291.0 748.3 1293.0 743.8 1295.5 738.5C1298.0 733.1 1301.2 726.2 1302.5 723.0C1308.0 710.0 1317.0 691.8 1320.9 686.2C1329.7 673.3 1343.8 664.0 1358.3 661.8C1364.9 660.8 1367.0 660.9 1373.4 662.4C1377.4 663.3 1381.7 664.8 1382.9 665.7C1384.1 666.5 1385.2 667.0 1385.4 666.9C1385.5 666.7 1386.4 663.6 1387.2 660.0C1392.8 636.7 1400.5 610.8 1404.5 601.5C1415.3 576.4 1426.8 560.9 1441.6 551.4C1450.3 545.8 1458.4 543.8 1470.3 544.2C1479.3 544.5 1481.3 544.9 1487.3 547.7C1500.7 554.1 1510.5 567.2 1513.3 582.6C1514.0 586.3 1515.1 589.5 1515.8 589.8C1516.4 590.0 1518.1 589.3 1519.5 588.1C1522.5 585.8 1532.5 582.4 1539.1 581.5C1545.5 580.7 1556.2 582.6 1562.9 585.7C1570.7 589.4 1580.8 599.7 1584.7 608.0C1591.3 622.1 1591.8 643.2 1586.0 664.5C1584.2 671.1 1581.9 679.6 1580.8 683.5C1579.8 687.4 1577.8 697.7 1576.4 706.5C1566.0 771.5 1549.0 868.1 1545.7 881.7C1542.7 893.5 1537.2 908.7 1531.8 919.3C1520.1 942.8 1471.5 1016.4 1443.6 1053.0C1406.7 1101.5 1371.6 1129.7 1312.0 1158.7C1294.7 1167.1 1284.2 1172.0 1283.5 1172.0C1283.2 1172.0 1281.1 1172.9 1278.7 1173.9C1276.4 1175.0 1270.5 1177.5 1265.5 1179.5C1260.5 1181.6 1255.2 1183.8 1253.5 1184.5C1251.8 1185.2 1248.9 1186.3 1247.0 1187.1C1245.1 1187.8 1241.2 1189.4 1238.5 1190.6C1235.8 1191.8 1230.6 1194.0 1227.0 1195.5C1205.6 1204.5 1188.0 1215.8 1174.9 1229.0C1151.3 1252.9 1139.8 1280.0 1137.0 1318.6C1136.0 1333.4 1135.6 1378.0 1136.6 1378.0C1136.9 1378.0 1139.5 1376.0 1142.3 1373.6ZM1262.0 897.1C1273.8 889.4 1281.9 883.8 1313.5 861.8C1331.5 849.3 1349.7 837.9 1353.8 836.6C1356.0 835.9 1356.5 834.7 1357.4 827.5C1357.7 825.3 1358.3 821.0 1358.9 818.0C1359.5 815.0 1362.6 796.8 1365.9 777.5C1369.1 758.2 1373.9 730.4 1376.5 715.6L1381.2 688.8L1379.3 686.1C1373.9 679.0 1362.8 677.4 1352.6 682.4C1343.4 686.9 1337.8 693.4 1331.1 707.3C1325.3 719.2 1296.0 783.6 1296.0 784.3C1296.0 784.6 1293.3 790.4 1290.0 797.3C1286.7 804.3 1284.0 810.2 1284.0 810.4C1284.0 810.7 1280.8 817.6 1276.9 825.7C1273.0 833.8 1268.8 843.0 1267.5 846.0C1266.2 849.0 1258.8 865.0 1251.1 881.4C1243.3 897.9 1237.0 911.5 1237.0 911.8C1237.0 912.6 1250.7 904.6 1262.0 897.1ZM606.0 910.5C606.0 910.2 604.6 907.3 603.0 904.0C601.3 900.7 597.3 892.1 594.1 884.8C590.9 877.5 586.8 868.4 585.0 864.5C579.8 853.2 574.0 840.1 570.0 830.5C567.9 825.5 563.9 816.3 561.0 810.0C552.9 792.1 541.6 766.3 532.5 745.0C520.8 717.4 513.5 701.2 510.5 695.8C506.5 688.7 497.9 681.3 491.4 679.4C482.5 676.8 471.9 680.1 466.8 687.0C465.4 689.0 465.2 690.2 465.9 693.0C466.4 694.9 467.3 700.3 468.0 705.0C468.6 709.7 469.9 717.3 470.7 722.0C471.5 726.7 472.6 733.2 473.1 736.5C473.6 739.8 474.5 745.0 475.0 748.0C476.1 754.4 476.7 758.9 478.1 768.5C478.7 772.4 480.0 779.8 481.0 785.0C482.0 790.2 483.3 797.6 483.9 801.5C485.7 813.3 488.0 828.3 488.6 831.8C489.0 834.6 490.0 835.5 495.8 838.5C503.2 842.2 511.5 847.7 526.5 858.8C569.2 890.3 606.0 914.2 606.0 910.5ZM431.0 827.0C439.6 824.8 455.4 824.3 462.6 826.1C465.1 826.7 467.2 827.1 467.4 826.9C467.8 826.5 467.4 823.4 465.0 808.0C463.0 794.9 462.1 789.8 460.0 778.0C457.5 764.7 456.2 756.9 455.5 752.0C455.2 750.1 454.5 746.1 454.0 743.2C453.4 740.4 452.6 735.6 452.0 732.8C451.5 729.9 450.6 724.4 450.0 720.5C449.4 716.6 448.5 711.2 448.0 708.5C447.5 705.8 446.6 700.7 446.0 697.2C443.4 681.6 441.4 670.7 439.0 660.0C438.6 658.1 437.7 654.2 437.1 651.5C435.1 641.8 430.1 623.4 426.5 612.6C419.7 592.0 411.8 577.7 402.2 568.8C395.5 562.5 391.2 560.8 381.9 560.8C372.2 560.7 366.3 563.5 360.4 570.7C353.9 578.6 351.8 585.5 352.2 597.0C352.5 605.9 352.8 607.2 357.2 616.5C363.1 629.2 371.6 654.8 378.6 680.9C379.4 683.8 380.2 686.6 380.5 686.9C380.7 687.3 381.8 690.9 382.9 695.0C384.0 699.1 386.9 709.7 389.4 718.6C393.6 733.5 404.6 774.3 415.2 813.8C419.1 828.7 419.7 830.0 421.5 829.5C422.6 829.2 426.9 828.1 431.0 827.0ZM1426.0 828.1C1426.0 827.1 1427.8 819.8 1430.1 811.9C1432.3 804.0 1435.4 792.5 1437.0 786.5C1444.0 759.3 1465.5 683.9 1473.4 659.0C1478.6 642.2 1484.2 628.3 1490.8 615.7L1495.5 606.7L1495.5 595.6C1495.5 585.8 1495.2 583.9 1492.9 579.0C1489.8 572.3 1485.9 568.3 1479.5 565.0C1475.5 562.9 1473.3 562.5 1467.0 562.6C1457.5 562.7 1451.5 565.6 1442.4 574.8C1437.3 579.8 1429.0 591.5 1429.0 593.5C1429.0 593.8 1427.9 596.3 1426.6 599.2C1421.0 611.4 1413.9 631.7 1410.9 644.2C1410.4 646.3 1409.5 649.9 1408.9 652.2C1408.4 654.6 1407.5 658.3 1407.0 660.5C1406.5 662.7 1405.7 666.3 1405.2 668.5C1401.8 682.6 1400.3 690.1 1396.6 713.0C1395.7 718.2 1394.6 724.8 1394.1 727.5C1393.6 730.2 1392.6 735.6 1392.0 739.5C1391.4 743.4 1390.5 748.8 1390.0 751.5C1387.0 768.3 1383.8 786.7 1382.0 798.5C1381.4 802.4 1380.0 810.4 1378.8 816.3C1377.7 822.2 1377.0 827.3 1377.2 827.5C1377.5 827.8 1381.2 827.3 1385.6 826.5C1389.9 825.7 1395.8 825.0 1398.5 825.0C1403.6 825.0 1415.9 827.2 1420.1 828.9C1424.0 830.5 1426.0 830.2 1426.0 828.1Z"/></svg>